<svg width="17" height="15" viewBox="0 0 17 15" fill="none" xmlns="http://www.w3.org/2000/svg">
<path d="M1.7 14.3C1.2325 14.3 0.832433 14.1336 0.4998 13.801C0.167167 13.4684 0.000566667 13.068 0 12.6V2.39995C0 1.93245 0.1666 1.53238 0.4998 1.19975C0.833 0.867118 1.23307 0.700518 1.7 0.699951H15.3C15.7675 0.699951 16.1678 0.866551 16.501 1.19975C16.8342 1.53295 17.0006 1.93302 17 2.39995V12.6C17 13.0675 16.8337 13.4678 16.501 13.801C16.1684 14.1342 15.7681 14.3005 15.3 14.3H1.7ZM8.5 8.34995L1.7 4.09995V12.6H15.3V4.09995L8.5 8.34995ZM8.5 6.64995L15.3 2.39995H1.7L8.5 6.64995ZM1.7 4.09995V2.39995V12.6V4.09995Z" fill="#232323"/>
</svg>
